<svg width="25" height="25" viewBox="0 0 25 25" fill="none" xmlns="http://www.w3.org/2000/svg">
<path fill-rule="evenodd" clip-rule="evenodd" d="M9.35292 18.7058C4.18744 18.7058 0 14.5184 0 9.35292C0 4.18744 4.18744 0 9.35292 0C14.5184 0 18.7058 4.18744 18.7058 9.35292C18.7058 11.4671 18.0043 13.4175 16.8214 14.984C16.8357 14.9971 16.8498 15.0106 16.8637 15.0245L23.0049 21.1656C23.5266 21.6874 23.5266 22.5334 23.0049 23.0552C22.4831 23.577 21.6371 23.577 21.1153 23.0552L14.9742 16.9141C14.9579 16.8978 14.9421 16.8812 14.9268 16.8642C13.3701 18.0213 11.4415 18.7058 9.35292 18.7058ZM14.8062 15.2292C13.3755 16.5575 11.4591 17.3697 9.35292 17.3697C4.92537 17.3697 1.33613 13.7805 1.33613 9.35292C1.33613 4.92537 4.92537 1.33613 9.35292 1.33613C13.7805 1.33613 17.3697 4.92537 17.3697 9.35292C17.3697 11.4811 16.5404 13.4156 15.1874 14.8509C15.112 14.9004 15.0405 14.9582 14.9742 15.0245C14.9104 15.0883 14.8544 15.157 14.8062 15.2292Z" fill="black"/>
</svg>
